PathFileType	4	(X/Y/Z)	a-muster-2 - Copy_1-48_filt_butterworth_LSTM.trc
DataRate	CameraRate	NumFrames	NumMarkers	Units	OrigDataRate	OrigDataStartFrame	OrigNumFrames
60	60	47	3	m	60	1	47
Frame#	Time	r_acromion			r_humerus_epicondyle			r_radius_styloid		
X1	Y1	Z1	X2	Y2	Z2	X3	Y3	Z3
1	0.0167	0.0	0.837	0.17000000000000004	-0.16620000000000001	0.8010999999999999	0.3289000000000001	-0.3339	0.8061	0.4779000000000001
2	0.0333	-0.0005000000000000004	0.837	0.16820000000000002	-0.1666	0.8009999999999999	0.3289000000000001	-0.33230000000000004	0.8070999999999999	0.4820000000000001
3	0.05	-0.0009000000000000119	0.8371	0.16680000000000006	-0.167	0.8009	0.3288000000000001	-0.33120000000000005	0.8079000000000001	0.48529999999999995
4	0.0667	-0.0011000000000000176	0.8371999999999999	0.16610000000000003	-0.1673	0.8009999999999999	0.3286000000000001	-0.3306	0.8083	0.48729999999999996
5	0.0833	-0.0013000000000000234	0.8373999999999999	0.16600000000000004	-0.1675	0.8011999999999999	0.32840000000000014	-0.3304	0.8084	0.4882000000000001
6	0.1	-0.0014000000000000123	0.8375999999999999	0.1663	-0.1676	0.8014000000000001	0.3285000000000001	-0.3306	0.8082	0.48850000000000005
7	0.1167	-0.001600000000000018	0.8375999999999999	0.16700000000000004	-0.1678	0.8015000000000001	0.3289000000000001	-0.3308	0.808	0.48840000000000006
8	0.1333	-0.001600000000000018	0.8375999999999999	0.16760000000000008	-0.16790000000000002	0.8016000000000001	0.32920000000000005	-0.331	0.8079000000000001	0.48840000000000006
9	0.15	-0.001600000000000018	0.8373999999999999	0.16800000000000004	-0.168	0.8015000000000001	0.32920000000000005	-0.33120000000000005	0.8081	0.48850000000000005
10	0.1667	-0.001600000000000018	0.8372999999999999	0.1683	-0.168	0.8014000000000001	0.3288000000000001	-0.33140000000000003	0.8085	0.4888
11	0.1833	-0.0015000000000000013	0.8371	0.1683	-0.168	0.8011999999999999	0.32830000000000015	-0.3318	0.8089	0.4891
12	0.2	-0.0013000000000000234	0.8371	0.1683	-0.16790000000000002	0.8009	0.3278	-0.33220000000000005	0.8090999999999999	0.4891
13	0.2167	-0.0012000000000000066	0.8371	0.16820000000000002	-0.16790000000000002	0.8006	0.3275	-0.3327	0.8091999999999999	0.48840000000000006
14	0.2333	-0.0012000000000000066	0.8372999999999999	0.16810000000000003	-0.16790000000000002	0.8004	0.32730000000000004	-0.333	0.8090999999999999	0.48729999999999996
15	0.25	-0.0014000000000000123	0.8373999999999999	0.16790000000000005	-0.1678	0.8002	0.32730000000000004	-0.3331	0.8088	0.48630000000000007
16	0.2667	-0.001600000000000018	0.8374999999999999	0.16790000000000005	-0.1675	0.8001	0.3276	-0.3328	0.8086	0.4862000000000001
17	0.2833	-0.0019000000000000128	0.8373999999999999	0.16780000000000006	-0.16720000000000002	0.7999	0.32809999999999995	-0.33230000000000004	0.8085	0.48719999999999997
18	0.3	-0.0021000000000000185	0.8371999999999999	0.16780000000000006	-0.1671	0.7998000000000001	0.3287000000000001	-0.3318	0.8086	0.48950000000000016
19	0.3167	-0.0022000000000000075	0.837	0.16770000000000007	-0.1673	0.7998000000000001	0.3294	-0.33130000000000004	0.8088	0.49250000000000005
20	0.3333	-0.0024000000000000132	0.8368	0.16770000000000007	-0.16770000000000002	0.7997000000000001	0.33009999999999995	-0.33089999999999997	0.8090999999999999	0.4952
21	0.35	-0.002600000000000019	0.8367	0.16780000000000006	-0.16820000000000002	0.7998000000000001	0.3309000000000001	-0.3307	0.8092999999999999	0.4968
22	0.3667	-0.002700000000000008	0.8366	0.16800000000000004	-0.16890000000000002	0.7999	0.3318	-0.3305	0.8095000000000001	0.49739999999999995
23	0.3833	-0.002799999999999997	0.8367	0.16820000000000002	-0.1694	0.8001	0.3328000000000001	-0.33020000000000005	0.8096000000000001	0.4972
24	0.4	-0.002799999999999997	0.8368	0.1683	-0.1694	0.8004	0.3338	-0.32989999999999997	0.8097000000000001	0.49660000000000004
25	0.4167	-0.002799999999999997	0.8369	0.1683	-0.169	0.8007	0.33430000000000015	-0.3296	0.8098000000000001	0.4959000000000001
26	0.4333	-0.002799999999999997	0.837	0.16820000000000002	-0.1685	0.8009	0.33440000000000014	-0.32930000000000004	0.8099000000000001	0.49539999999999995
27	0.45	-0.002799999999999997	0.837	0.16800000000000004	-0.1681	0.8009999999999999	0.3339	-0.3291	0.81	0.4952
28	0.4667	-0.002700000000000008	0.837	0.16800000000000004	-0.1678	0.8009999999999999	0.3330000000000001	-0.329	0.8101	0.4951
29	0.4833	-0.0025000000000000022	0.837	0.16810000000000003	-0.1676	0.8008	0.3319	-0.329	0.8102	0.49529999999999996
30	0.5	-0.0022999999999999965	0.8371	0.16820000000000002	-0.1676	0.8005	0.33100000000000007	-0.3291	0.8101	0.4959000000000001
31	0.5167	-0.0021000000000000185	0.8371	0.1683	-0.16770000000000002	0.8003	0.33040000000000014	-0.32920000000000005	0.81	0.49670000000000003
32	0.5333	-0.0021000000000000185	0.8371999999999999	0.1683	-0.16790000000000002	0.8001	0.33009999999999995	-0.3294	0.8097000000000001	0.49760000000000015
33	0.55	-0.0022000000000000075	0.8373999999999999	0.16820000000000002	-0.1681	0.7999	0.32999999999999996	-0.3297	0.8093999999999999	0.4981000000000001
34	0.5667	-0.0024000000000000132	0.8374999999999999	0.16800000000000004	-0.1685	0.7997000000000001	0.33020000000000016	-0.33	0.8092999999999999	0.4983000000000001
35	0.5833	-0.002600000000000019	0.8374999999999999	0.16790000000000005	-0.1688	0.7997000000000001	0.33040000000000014	-0.3304	0.8092999999999999	0.4980000000000001
36	0.6	-0.002700000000000008	0.8373999999999999	0.16760000000000008	-0.16920000000000002	0.7998000000000001	0.3308000000000001	-0.3308	0.8095000000000001	0.49739999999999995
37	0.6167	-0.002799999999999997	0.8372999999999999	0.1674000000000001	-0.1694	0.8001	0.3315	-0.33130000000000004	0.8097000000000001	0.49650000000000005
38	0.6333	-0.0029000000000000137	0.8371999999999999	0.1673	-0.1695	0.8006	0.3327000000000001	-0.3316	0.8097000000000001	0.4959000000000001
39	0.65	-0.0029000000000000137	0.837	0.1675000000000001	-0.1696	0.8010999999999999	0.33409999999999995	-0.3318	0.8097000000000001	0.4959000000000001
40	0.6667	-0.002799999999999997	0.8369	0.16790000000000005	-0.1695	0.8016000000000001	0.33540000000000003	-0.3318	0.8095000000000001	0.49640000000000006
41	0.6833	-0.002700000000000008	0.8369	0.1684000000000001	-0.1693	0.8019000000000001	0.33630000000000015	-0.3318	0.8093999999999999	0.4971
42	0.7	-0.0025000000000000022	0.8369	0.16890000000000005	-0.169	0.802	0.3366000000000001	-0.3318	0.8092999999999999	0.49780000000000013
43	0.7167	-0.0024000000000000132	0.8368	0.1693	-0.1686	0.8019000000000001	0.33640000000000014	-0.3318	0.8092999999999999	0.4982000000000001
44	0.7333	-0.0024000000000000132	0.8368	0.1694000000000001	-0.16820000000000002	0.8016000000000001	0.33530000000000004	-0.3319	0.8092999999999999	0.4982000000000001
45	0.75	-0.0025000000000000022	0.8367	0.16920000000000002	-0.16790000000000002	0.8009	0.3337	-0.332	0.8092999999999999	0.4979000000000001
46	0.7667	-0.0029000000000000137	0.8365	0.1685000000000001	-0.1678	0.7998000000000001	0.3318	-0.33240000000000003	0.8090999999999999	0.49750000000000016
47	0.7833	-0.003400000000000014	0.8362	0.16760000000000008	-0.16770000000000002	0.7985	0.32989999999999997	-0.3329	0.8089999999999999	0.4971
